<svg width="61" height="61" viewBox="0 0 61 61" fill="none" xmlns="http://www.w3.org/2000/svg">
<g clip-path="url(#clip0_11_168)">
<path d="M5.65194 7.88538C2.53163 7.88538 6.10352e-05 10.4169 6.10352e-05 13.5373C6.10352e-05 15.3152 0.836068 16.9873 2.26081 18.0588L27.8827 37.2751C29.225 38.276 31.0618 38.276 32.4042 37.2751L58.026 18.0588C59.4507 16.9873 60.2868 15.3152 60.2868 13.5373C60.2868 10.4169 57.7552 7.88538 54.6349 7.88538H5.65194ZM6.10352e-05 21.0731V45.5646C6.10352e-05 49.721 3.37941 53.1004 7.5359 53.1004H52.7509C56.9074 53.1004 60.2868 49.721 60.2868 45.5646V21.0731L34.6649 40.2895C31.9803 42.303 28.3065 42.303 25.6219 40.2895L6.10352e-05 21.0731Z" fill="white"/>
</g>
<defs>
<clipPath id="clip0_11_168">
<rect width="60.2867" height="60.2867" fill="white" transform="translate(6.10352e-05 0.349609)"/>
</clipPath>
</defs>
</svg>
