<svg width="38" height="39" viewBox="0 0 38 39" fill="none" xmlns="http://www.w3.org/2000/svg">
<g clip-path="url(#clip0_11_191)">
<path d="M12.4837 30.0436C12.4837 30.1934 12.3106 30.3133 12.0924 30.3133C11.844 30.3358 11.671 30.2159 11.671 30.0436C11.671 29.8937 11.844 29.7738 12.0623 29.7738C12.288 29.7514 12.4837 29.8712 12.4837 30.0436ZM10.1434 29.7064C10.0908 29.8563 10.2413 30.0286 10.467 30.0735C10.6627 30.1485 10.8884 30.0735 10.9335 29.9237C10.9787 29.7738 10.8357 29.6015 10.61 29.5341C10.4143 29.4817 10.1961 29.5566 10.1434 29.7064ZM13.4694 29.5791C13.2512 29.6315 13.1007 29.7739 13.1233 29.9462C13.1458 30.096 13.3415 30.1934 13.5672 30.141C13.7854 30.0885 13.9359 29.9462 13.9134 29.7963C13.8908 29.654 13.6876 29.5566 13.4694 29.5791ZM18.4207 0.869141C7.98382 0.869141 0 8.75837 0 19.15C0 27.4588 5.25232 34.5688 12.7545 37.0712C13.7177 37.2435 14.0563 36.6516 14.0563 36.1647C14.0563 35.7001 14.0338 33.1378 14.0338 31.5645C14.0338 31.5645 8.7664 32.6883 7.66025 29.3318C7.66025 29.3318 6.80243 27.1516 5.56836 26.5897C5.56836 26.5897 3.84518 25.4134 5.68875 25.4359C5.68875 25.4359 7.56243 25.5857 8.59333 27.3689C10.2413 30.2608 13.0029 29.4292 14.0789 28.9347C14.252 27.736 14.7411 26.9044 15.2829 26.4099C11.0765 25.9454 6.83253 25.3385 6.83253 18.1311C6.83253 16.0707 7.40441 15.0368 8.60838 13.7182C8.41273 13.2312 7.77313 11.2233 8.80402 8.63101C10.3767 8.14402 13.9961 10.6539 13.9961 10.6539C15.5011 10.2343 17.1189 10.0171 18.7217 10.0171C20.3245 10.0171 21.9423 10.2343 23.4473 10.6539C23.4473 10.6539 27.0667 8.13653 28.6394 8.63101C29.6703 11.2308 29.0307 13.2312 28.8351 13.7182C30.039 15.0443 30.7765 16.0782 30.7765 18.1311C30.7765 25.361 26.3444 25.9379 22.138 26.4099C22.8303 27.0018 23.4172 28.1256 23.4172 29.8862C23.4172 32.4111 23.3946 35.5353 23.3946 36.1497C23.3946 36.6367 23.7408 37.2285 24.6964 37.0562C32.2212 34.5688 37.323 27.4588 37.323 19.15C37.323 8.75837 28.8576 0.869141 18.4207 0.869141ZM7.31411 26.7096C7.21629 26.7845 7.23887 26.9568 7.36679 27.0992C7.48718 27.219 7.66025 27.2715 7.75808 27.1741C7.8559 27.0992 7.83332 26.9268 7.7054 26.7845C7.58501 26.6646 7.41194 26.6122 7.31411 26.7096ZM6.50143 26.1027C6.44876 26.2001 6.52401 26.32 6.6745 26.3949C6.7949 26.4698 6.9454 26.4473 6.99807 26.3424C7.05075 26.245 6.9755 26.1252 6.825 26.0503C6.6745 26.0053 6.55411 26.0278 6.50143 26.1027ZM8.93947 28.7699C8.81907 28.8673 8.86422 29.0921 9.03729 29.2344C9.21036 29.4067 9.42858 29.4292 9.52641 29.3093C9.62423 29.2119 9.57908 28.9872 9.42858 28.8448C9.26304 28.6725 9.03729 28.65 8.93947 28.7699ZM8.08164 27.6686C7.96125 27.7435 7.96125 27.9383 8.08164 28.1106C8.20204 28.2829 8.40521 28.3578 8.50303 28.2829C8.62343 28.1855 8.62343 27.9907 8.50303 27.8184C8.39769 27.6461 8.20204 27.5712 8.08164 27.6686Z" fill="white"/>
</g>
<defs>
<clipPath id="clip0_11_191">
<rect width="37.323" height="38.3598" fill="white" transform="translate(0 0.269775)"/>
</clipPath>
</defs>
</svg>
