<svg width="73" height="64" viewBox="0 0 73 64" fill="none" xmlns="http://www.w3.org/2000/svg">
<g clip-path="url(#clip0_11_164)">
<path d="M61.343 8.80917C61.3218 8.76948 61.2868 8.73891 61.2445 8.72321C56.5554 6.57655 51.6072 5.04524 46.5235 4.16756C46.4779 4.15921 46.4307 4.16539 46.3888 4.18522C46.3468 4.20505 46.3121 4.23753 46.2897 4.27808C45.6154 5.49901 45.0033 6.7531 44.4557 8.03557C38.9729 7.20532 33.3959 7.20532 27.913 8.03557C27.3632 6.74993 26.7428 5.49552 26.0545 4.27808C26.0307 4.23874 25.9958 4.20727 25.9542 4.18761C25.9126 4.16795 25.8661 4.16098 25.8206 4.16756C20.728 5.04129 15.7712 6.57271 11.075 8.72321C11.0338 8.74062 10.9993 8.77075 10.9765 8.80917C1.5974 22.7954 -0.975086 36.4255 0.280385 49.896C0.28394 49.9299 0.294531 49.9627 0.311483 49.9923C0.328436 50.0219 0.351379 50.0476 0.378853 50.0679C5.84217 54.0993 11.952 57.1761 18.4478 59.1669C18.4945 59.1813 18.5445 59.1808 18.5909 59.1653C18.6372 59.1499 18.6776 59.1204 18.7063 59.0809C20.1 57.1881 21.335 55.1838 22.3988 53.0886C22.413 53.0598 22.421 53.0283 22.4225 52.9963C22.4239 52.9642 22.4186 52.9321 22.4071 52.9022C22.3955 52.8722 22.3779 52.8449 22.3553 52.8221C22.3327 52.7992 22.3056 52.7813 22.2757 52.7693C20.3242 52.0233 18.4351 51.1241 16.6261 50.0802C16.5942 50.0606 16.5674 50.0337 16.548 50.0017C16.5286 49.9697 16.5173 49.9335 16.5148 49.8962C16.5124 49.8589 16.519 49.8215 16.5341 49.7873C16.5492 49.7531 16.5723 49.7229 16.6015 49.6995C16.9831 49.4171 17.3646 49.1224 17.7216 48.8277C17.7531 48.8001 17.7918 48.782 17.8332 48.7755C17.8746 48.7689 17.917 48.7743 17.9554 48.7908C29.7962 54.1815 42.6217 54.1815 54.3272 48.7908C54.3645 48.7726 54.4063 48.7652 54.4476 48.7696C54.489 48.7739 54.5283 48.7898 54.561 48.8154C54.918 49.1101 55.2995 49.4171 55.6811 49.6995C55.7103 49.7229 55.7334 49.7531 55.7485 49.7873C55.7635 49.8215 55.7702 49.8589 55.7677 49.8962C55.7653 49.9335 55.754 49.9697 55.7346 50.0017C55.7152 50.0337 55.6884 50.0606 55.6565 50.0802C53.8522 51.1295 51.9622 52.025 50.0069 52.7571C49.977 52.769 49.9499 52.7869 49.9273 52.8098C49.9047 52.8327 49.8871 52.8599 49.8755 52.8899C49.8639 52.9199 49.8587 52.9519 49.8601 52.984C49.8616 53.0161 49.8696 53.0475 49.8838 53.0763C50.9661 55.1611 52.2003 57.1639 53.5763 59.0687C53.605 59.1081 53.6454 59.1377 53.6917 59.1531C53.7381 59.1685 53.7881 59.169 53.8348 59.1546C60.3494 57.1727 66.4768 54.0955 71.953 50.0556C71.981 50.0359 72.0044 50.0103 72.0214 49.9806C72.0384 49.9509 72.0487 49.9178 72.0514 49.8837C73.5531 34.3257 69.5159 20.8061 61.343 8.80917ZM24.1712 41.6933C20.6018 41.6933 17.6723 38.427 17.6723 34.4239C17.6723 30.4209 20.5525 27.1423 24.1712 27.1423C27.8269 27.1423 30.7317 30.4331 30.6702 34.4117C30.6702 38.427 27.79 41.6933 24.1712 41.6933ZM48.2221 41.6933C44.6526 41.6933 41.7232 38.427 41.7232 34.4239C41.7232 30.4209 44.5911 27.1423 48.2221 27.1423C51.8778 27.1423 54.7826 30.4331 54.721 34.4117C54.721 38.427 51.8654 41.6933 48.2221 41.6933Z" fill="white"/>
</g>
<defs>
<clipPath id="clip0_11_164">
<rect width="72.344" height="62.8704" fill="white" transform="translate(6.10352e-05 0.238281)"/>
</clipPath>
</defs>
</svg>
