<svg width="62" height="68" viewBox="0 0 62 68" fill="none" xmlns="http://www.w3.org/2000/svg">
<g clip-path="url(#clip0_11_166)">
<path d="M56.7803 4.92419H4.35412C1.95188 4.92419 6.10352e-05 6.80227 6.10352e-05 9.10776V58.7666C6.10352e-05 61.0721 1.95188 62.9501 4.35412 62.9501H56.7803C59.1825 62.9501 61.148 61.0721 61.148 58.7666V9.10776C61.148 6.80227 59.1825 4.92419 56.7803 4.92419ZM18.4809 54.6607H9.41793V26.9689H18.4946V54.6607H18.4809ZM13.9494 23.1868C11.0422 23.1868 8.69453 20.9461 8.69453 18.2002C8.69453 15.4543 11.0422 13.2136 13.9494 13.2136C16.843 13.2136 19.2043 15.4543 19.2043 18.2002C19.2043 20.959 16.8567 23.1868 13.9494 23.1868ZM52.4535 54.6607H43.3905V41.1904C43.3905 37.9783 43.3223 33.8465 38.6816 33.8465C33.959 33.8465 33.2356 37.3436 33.2356 40.9573V54.6607H24.1726V26.9689H32.8671V30.7509H32.9899C34.2047 28.5749 37.1665 26.2824 41.5752 26.2824C50.7474 26.2824 52.4535 32.0202 52.4535 39.4807V54.6607Z" fill="white"/>
</g>
<defs>
<clipPath id="clip0_11_166">
<rect width="61.1479" height="66.3154" fill="white" transform="translate(6.10352e-05 0.779541)"/>
</clipPath>
</defs>
</svg>
